<?xml version="1.0" encoding="UTF-8" standalone="no"?>
<!-- Created with Sodipodi ("http://www.sodipodi.com/") -->
<svg
   xmlns:dc="http://purl.org/dc/elements/1.1/"
   xmlns:cc="http://web.resource.org/cc/"
   xmlns:rdf="http://www.w3.org/1999/02/22-rdf-syntax-ns#"
   xmlns:svg="http://www.w3.org/2000/svg"
   xmlns="http://www.w3.org/2000/svg"
   xmlns:xlink="http://www.w3.org/1999/xlink"
   xmlns:sodipodi="http://inkscape.sourceforge.net/DTD/sodipodi-0.dtd"
   xmlns:inkscape="http://www.inkscape.org/namespaces/inkscape"
   id="svg875"
   sodipodi:version="0.32"
   width="128pt"
   height="128pt"
   xml:space="preserve"
   sodipodi:docbase="H:\plugindev\gutil"
   sodipodi:docname="gutil.svg"
   inkscape:version="0.43"
   inkscape:export-filename="h:\128.png"
   inkscape:export-xdpi="72"
   inkscape:export-ydpi="72"><metadata
   id="metadata38"><rdf:RDF><cc:Work
       rdf:about=""><dc:format>image/svg+xml</dc:format><dc:type
         rdf:resource="http://purl.org/dc/dcmitype/StillImage" /></cc:Work></rdf:RDF></metadata><defs
   id="defs877"><linearGradient
     id="linearGradient1172"><stop
       style="stop-color:#ffffff;stop-opacity:1;"
       offset="0"
       id="stop1173" /><stop
       style="stop-color:#ffffff;stop-opacity:0;"
       offset="1"
       id="stop1174" /></linearGradient><linearGradient
     id="linearGradient676"><stop
       style="stop-color:#7f7f7f;stop-opacity:0.498;"
       offset="0"
       id="stop677" /><stop
       style="stop-color:#ffffff;stop-opacity:1;"
       offset="1"
       id="stop678" /></linearGradient><linearGradient
     id="linearGradient902"><stop
       style="stop-color:#99bfff;stop-opacity:1;"
       offset="0"
       id="stop903" /><stop
       style="stop-color:#ffffff;stop-opacity:1;"
       offset="1"
       id="stop904" /></linearGradient><linearGradient
     xlink:href="#linearGradient902"
     id="linearGradient905"
     x1="0.32283562"
     y1="5.46896271e-2"
     x2="0.40944889"
     y2="0.97656268" /><linearGradient
     xlink:href="#linearGradient902"
     id="linearGradient931"
     x1="0.1968497"
     y1="0.95312488"
     x2="0.85826766"
     y2="-2.34375726e-2" /><radialGradient
     xlink:href="#linearGradient902"
     id="radialGradient932"
     cx="0.55284554"
     cy="0.56250006"
     r="0.29860169"
     fx="0.55284554"
     fy="0.56250006"
     spreadMethod="reflect" /><linearGradient
     xlink:href="#linearGradient1172"
     id="linearGradient679"
     x1="0.37695879"
     y1="0.015624168"
     x2="0.51832438"
     y2="1.1249998"
     spreadMethod="pad" /><radialGradient
     xlink:href="#linearGradient676"
     id="radialGradient680"
     cx="0.55284554"
     cy="0.56250006"
     r="0.29860169"
     fx="0.55284554"
     fy="0.56250006" /><linearGradient
     xlink:href="#linearGradient676"
     id="linearGradient1224"
     x1="0.32283562"
     y1="5.4689616e-2"
     x2="0.40944889"
     y2="0.97656268" /></defs><sodipodi:namedview
   id="base"
   inkscape:zoom="2.3375"
   inkscape:cx="80"
   inkscape:cy="80"
   inkscape:window-width="756"
   inkscape:window-height="540"
   inkscape:window-x="220"
   inkscape:window-y="220"
   inkscape:current-layer="svg875" /><path
   style="font-size:12;fill:#000000;fill-rule:evenodd;stroke:none;stroke-width:2.5;fill-opacity:0.098;"
   d="M 17.09067 86.38798 L 34.35728 79.25956 C 35.22853 75.45774 36.57501 71.81433 38.39671 68.40856 L 28.89216 55.57739 C 28.89216 55.57739 37.76308 44.88476 37.76308 44.88476 L 52.57434 50.98354 C 55.74252 48.36977 59.30673 46.15204 63.02937 44.48874 L 66.59358 27.06373 C 66.67276 26.98452 79.18708 24.52918 79.18708 24.52918 C 79.18708 24.52918 87.66198 35.53862 87.66198 35.53862 L 89.00845 41.00374 C 90.75096 41.32056 92.41425 41.87499 93.99834 42.50863 L 108.0966 30.62794 C 108.1758 30.62794 117.0467 37.75635 117.0467 37.75635 C 117.0467 37.75635 125.4424 48.76579 125.4424 48.76579 L 117.2052 63.97307 L 129.165 64.13148 L 137.5607 75.14092 C 137.5607 75.22013 137.5607 87.73446 137.5607 87.73446 L 120.7694 95.17969 C 119.8189 99.06062 118.3932 102.8625 116.4131 106.3475 L 125.4424 119.4162 C 125.4424 119.4162 116.5715 130.0296 116.5715 130.1088 L 101.7603 123.5349 C 98.75056 125.9902 95.34482 127.8911 91.85982 129.4752 L 87.66198 147.6131 C 87.66198 147.6131 75.14765 150.0684 74.98924 150.1476 C 74.98924 150.1476 66.59358 139.1382 66.59358 139.1382 L 65.23853 132.3887 C 63.97122 132.4679 62.71253 131.6137 61.68287 131.2177 L 46.23797 143.732 C 46.23797 143.732 37.36705 136.6036 37.28785 136.6036 C 37.28785 136.6036 28.89216 125.5942 28.89216 125.5942 L 37.52546 110.5453 L 25.48636 109.9909 L 17.09067 98.98142 C 17.09067 98.98142 17.09067 86.46718 17.09067 86.38798 z M 125.6926 119.4162 C 125.6926 119.4162 116.8217 130.0296 116.8217 130.1088 L 125.6926 119.4162 z M 93.85261 78.9415 C 93.85261 87.17878 86.96193 98.18944 78.56547 103.4169 C 70.09061 108.7236 63.27972 106.2683 63.27972 98.03094 C 63.27972 89.79253 70.09061 78.78309 78.56547 73.47759 C 86.96193 68.25008 93.85261 70.62622 93.85261 78.9415 z "
   id="path834" /><path
   style="font-size:12;fill:#000000;fill-rule:evenodd;stroke:none;stroke-width:2.5;fill-opacity:0.098;"
   d="M 18.12963 84.82951 L 35.39624 77.70109 C 36.26749 73.89927 37.61397 70.25586 39.43567 66.85009 L 29.93112 54.01892 C 29.93112 54.01892 38.80204 43.32629 38.80204 43.32629 L 53.6133 49.42507 C 56.78148 46.8113 60.34569 44.59357 64.06833 42.93027 L 67.63254 25.50526 C 67.71172 25.42605 80.22604 22.97071 80.22604 22.97071 C 80.22604 22.97071 88.70094 33.98015 88.70094 33.98015 L 90.04741 39.44527 C 91.78992 39.76209 93.45321 40.31652 95.0373 40.95016 L 109.1356 29.06947 C 109.2148 29.06947 118.0857 36.19788 118.0857 36.19788 C 118.0857 36.19788 126.4814 47.20732 126.4814 47.20732 L 118.2442 62.4146 L 130.204 62.57301 L 138.5997 73.58245 C 138.5997 73.66166 138.5997 86.17599 138.5997 86.17599 L 121.8084 93.62122 C 120.8579 97.50215 119.4322 101.304 117.4521 104.789 L 126.4814 117.8577 C 126.4814 117.8577 117.6105 128.4711 117.6105 128.5503 L 102.7993 121.9764 C 99.78952 124.4317 96.38378 126.3326 92.89878 127.9167 L 88.70094 146.0546 C 88.70094 146.0546 76.18661 148.5099 76.0282 148.5891 C 76.0282 148.5891 67.63254 137.5797 67.63254 137.5797 L 66.27749 130.8302 C 65.01018 130.9094 63.75149 130.0552 62.72183 129.6592 L 47.27693 142.1735 C 47.27693 142.1735 38.40601 135.0451 38.32681 135.0451 C 38.32681 135.0451 29.93112 124.0357 29.93112 124.0357 L 38.56442 108.9868 L 26.52532 108.4324 L 18.12963 97.42295 C 18.12963 97.42295 18.12963 84.90871 18.12963 84.82951 z M 126.7316 117.8577 C 126.7316 117.8577 117.8607 128.4711 117.8607 128.5503 L 126.7316 117.8577 z M 94.89157 77.38303 C 94.89157 85.62031 88.00089 96.63097 79.60443 101.8584 C 71.12957 107.1651 64.31868 104.7098 64.31868 96.47247 C 64.31868 88.23406 71.12957 77.22462 79.60443 71.91912 C 88.00089 66.69161 94.89157 69.06775 94.89157 77.38303 z "
   id="path835" /><path
   style="font-size:12;fill:#000000;fill-rule:evenodd;stroke:none;stroke-width:2.5;fill-opacity:0.098;"
   d="M 19.16859 83.27103 L 36.4352 76.14261 C 37.30645 72.34079 38.65293 68.69738 40.47463 65.29161 L 30.97008 52.46044 C 30.97008 52.46044 39.841 41.76781 39.841 41.76781 L 54.65226 47.86659 C 57.82044 45.25282 61.38465 43.03509 65.10729 41.37179 L 68.6715 23.94678 C 68.75068 23.86757 81.265 21.41223 81.265 21.41223 C 81.265 21.41223 89.7399 32.42167 89.7399 32.42167 L 91.08637 37.88679 C 92.82888 38.20361 94.49217 38.75804 96.07626 39.39168 L 110.1746 27.51099 C 110.2538 27.51099 119.1247 34.6394 119.1247 34.6394 C 119.1247 34.6394 127.5204 45.64884 127.5204 45.64884 L 119.2832 60.85612 L 131.243 61.01453 L 139.6387 72.02397 C 139.6387 72.10318 139.6387 84.61751 139.6387 84.61751 L 122.8474 92.06274 C 121.8969 95.94367 120.4712 99.7455 118.4911 103.2305 L 127.5204 116.2992 C 127.5204 116.2992 118.6495 126.9126 118.6495 126.9918 L 103.8383 120.4179 C 100.8285 122.8732 97.42274 124.7741 93.93774 126.3582 L 89.7399 144.4961 C 89.7399 144.4961 77.22557 146.9514 77.06716 147.0306 C 77.06716 147.0306 68.6715 136.0212 68.6715 136.0212 L 67.31645 129.2717 C 66.04914 129.3509 64.79045 128.4967 63.76079 128.1007 L 48.31589 140.615 C 48.31589 140.615 39.44497 133.4866 39.36577 133.4866 C 39.36577 133.4866 30.97008 122.4772 30.97008 122.4772 L 39.60338 107.4283 L 27.56428 106.8739 L 19.16859 95.86447 C 19.16859 95.86447 19.16859 83.35023 19.16859 83.27103 z M 127.7706 116.2992 C 127.7706 116.2992 118.8997 126.9126 118.8997 126.9918 L 127.7706 116.2992 z M 95.93053 75.82455 C 95.93053 84.06183 89.03985 95.07249 80.64339 100.2999 C 72.16853 105.6066 65.35764 103.1513 65.35764 94.91399 C 65.35764 86.67558 72.16853 75.66614 80.64339 70.36064 C 89.03985 65.13313 95.93053 67.50927 95.93053 75.82455 z "
   id="path836" /><path
   style="font-size:12;fill:#000000;fill-rule:evenodd;stroke:none;stroke-width:2.5;fill-opacity:0.098;"
   d="M 20.20755 81.71256 L 37.47416 74.58414 C 38.34541 70.78232 39.69189 67.13891 41.51359 63.73314 L 32.00904 50.90197 C 32.00904 50.90197 40.87996 40.20934 40.87996 40.20934 L 55.69122 46.30812 C 58.8594 43.69435 62.42361 41.47662 66.14625 39.81332 L 69.71046 22.38831 C 69.78964 22.3091 82.30396 19.85376 82.30396 19.85376 C 82.30396 19.85376 90.77886 30.8632 90.77886 30.8632 L 92.12533 36.32832 C 93.86784 36.64514 95.53113 37.19957 97.11522 37.83321 L 111.2136 25.95252 C 111.2928 25.95252 120.1637 33.08093 120.1637 33.08093 C 120.1637 33.08093 128.5594 44.09037 128.5594 44.09037 L 120.3222 59.29765 L 132.282 59.45606 L 140.6777 70.4655 C 140.6777 70.54471 140.6777 83.05904 140.6777 83.05904 L 123.8864 90.50427 C 122.9359 94.3852 121.5102 98.18703 119.5301 101.672 L 128.5594 114.7407 C 128.5594 114.7407 119.6885 125.3541 119.6885 125.4333 L 104.8773 118.8594 C 101.8675 121.3147 98.4617 123.2156 94.9767 124.7997 L 90.77886 142.9376 C 90.77886 142.9376 78.26453 145.3929 78.10612 145.4721 C 78.10612 145.4721 69.71046 134.4627 69.71046 134.4627 L 68.35541 127.7132 C 67.0881 127.7924 65.82941 126.9382 64.79975 126.5422 L 49.35485 139.0565 C 49.35485 139.0565 40.48393 131.9281 40.40473 131.9281 C 40.40473 131.9281 32.00904 120.9187 32.00904 120.9187 L 40.64234 105.8698 L 28.60324 105.3154 L 20.20755 94.306 C 20.20755 94.306 20.20755 81.79176 20.20755 81.71256 z M 128.8096 114.7407 C 128.8096 114.7407 119.9387 125.3541 119.9387 125.4333 L 128.8096 114.7407 z M 96.96949 74.26608 C 96.96949 82.50336 90.07881 93.51402 81.68235 98.74143 C 73.20749 104.0481 66.3966 101.5928 66.3966 93.35552 C 66.3966 85.11711 73.20749 74.10767 81.68235 68.80217 C 90.07881 63.57466 96.96949 65.9508 96.96949 74.26608 z "
   id="path837" /><path
   style="font-size:12;fill:url(#radialGradient932);fill-rule:evenodd;stroke-width:1.875;"
   d="M 20.72703 79.1153 L 37.99364 71.98688 C 38.86489 68.18506 40.21137 64.54165 42.03307 61.13585 L 32.52852 48.30471 C 32.52852 48.30471 41.39944 37.61208 41.39944 37.61208 L 56.2107 43.71084 C 59.37888 41.09709 62.94309 38.87936 66.6657 37.21606 L 70.22991 19.79105 C 70.30912 19.71184 82.82344 17.2565 82.82344 17.2565 C 82.82344 17.2565 91.29834 28.26594 91.29834 28.26594 L 92.64481 33.73106 C 94.38732 34.04788 96.05061 34.60231 97.6347 35.23595 L 111.7331 23.35526 C 111.8123 23.35526 120.6832 30.48367 120.6832 30.48367 C 120.6832 30.48367 129.0789 41.49311 129.0789 41.49311 L 120.8417 56.70039 L 132.8015 56.8588 L 141.1972 67.86824 C 141.1972 67.94745 141.1972 80.46178 141.1972 80.46178 L 124.4059 87.90701 C 123.4554 91.78803 122.0297 95.58985 120.0496 99.07486 L 129.0789 112.1436 C 129.0789 112.1436 120.208 122.757 120.208 122.8362 L 105.3968 116.2623 C 102.387 118.7176 98.98118 120.6185 95.49618 122.2026 L 91.29834 140.3405 C 91.29834 140.3405 78.78401 142.7958 78.6256 142.875 C 78.6256 142.875 70.22991 131.8656 70.22991 131.8656 L 68.64582 124.6579 C 67.37855 124.7371 66.34889 124.3411 65.31923 123.9451 L 49.87433 136.4594 C 49.87433 136.4594 41.00341 129.331 40.92421 129.331 C 40.92421 129.331 32.52852 118.3216 32.52852 118.3216 L 41.16182 103.2727 L 29.12272 102.7183 L 20.72703 91.70883 C 20.72703 91.70883 20.72703 79.1945 20.72703 79.1153 z M 97.71391 71.67006 C 97.71391 79.90734 90.82311 90.91678 82.42742 96.14429 C 73.95253 101.451 67.14093 98.99565 67.14093 90.75837 C 67.14093 82.52109 73.95253 71.51165 82.42742 66.20495 C 90.82311 60.97744 97.71391 63.35358 97.71391 71.67006 z "
   id="path930" /><path
   style="font-size:12;fill:none;fill-rule:evenodd;stroke:#ffffff;stroke-width:1.584092;stroke-opacity:1;"
   d="M 38.15055 72.10218 L 47.05794 83.11495 "
   id="path940" /><path
   style="font-size:12;fill:none;fill-rule:evenodd;stroke:#ffffff;stroke-width:1.584092;stroke-opacity:1;"
   d="M 20.82785 79.605 L 29.76021 90.5987 "
   id="path939" /><path
   style="font-size:12;fill:none;fill-rule:evenodd;stroke:#ffffff;stroke-width:1.584092;stroke-opacity:1;"
   d="M 41.67005 37.92059 L 50.37338 48.91428 "
   id="path933" /><path
   style="font-size:12;fill:none;fill-rule:evenodd;stroke:#ffffff;stroke-width:1.584092;stroke-opacity:1;"
   d="M 56.3283 44.10454 L 64.80261 54.64016 "
   id="path934" /><path
   style="font-size:12;fill:none;fill-rule:evenodd;stroke:#ffffff;stroke-width:1.584092;stroke-opacity:1;"
   d="M 66.6349 37.46252 L 75.33823 48.68524 "
   id="path935" /><path
   style="font-size:12;fill:none;fill-rule:evenodd;stroke:#ffffff;stroke-width:1.584092;stroke-opacity:1;"
   d="M 97.32562 35.4012 L 106.487 46.16585 "
   id="path937" /><path
   style="font-size:12;fill:none;fill-rule:evenodd;stroke:#ffffff;stroke-width:1.584092;stroke-opacity:1;"
   d="M 70.29945 20.05585 L 79.23183 31.04955 "
   id="path936" /><path
   style="font-size:12;fill:url(#linearGradient905);fill-opacity:0.1898;fill-rule:evenodd;stroke:#ffffff;stroke-width:2.376138;stroke-opacity:1;"
   d="M 29.37314 90.12461 L 46.63971 82.99508 C 47.51096 79.19326 48.93665 75.54985 50.75835 72.14405 L 41.1746 59.31411 C 41.2538 59.31411 50.12472 48.70069 50.12472 48.70069 L 64.85677 54.72024 C 68.02494 52.10649 71.58844 49.88876 75.31105 48.22546 L 78.87524 30.80077 C 79.03365 30.72156 91.54875 28.26622 91.54875 28.26622 L 95.50898 43.94844 C 99.31067 44.10685 103.0333 44.89887 106.2807 46.24535 L 120.4582 34.36496 C 120.4582 34.36496 129.3291 41.49324 129.3291 41.49324 L 120.5374 57.73002 C 122.5967 60.58138 124.1016 63.90797 124.9728 67.63059 L 141.4474 67.8682 C 141.4474 67.94741 141.4474 80.46053 141.4474 80.46053 L 124.656 87.90547 C 123.7848 91.78803 122.2799 95.58985 120.2998 99.07486 L 129.3291 112.1436 C 129.3291 112.1436 120.4582 122.757 120.4582 122.8362 L 105.647 116.2623 C 102.6373 118.7176 99.31067 120.6185 95.74647 122.2026 L 91.54875 140.3405 C 91.54875 140.3405 79.03365 142.7958 78.87524 142.875 L 75.15264 126.0836 C 71.74685 125.846 68.5001 125.1332 65.5696 123.9451 L 50.12472 136.4594 C 50.12472 136.4594 41.2538 129.331 41.1746 129.331 L 50.99597 112.302 C 49.17426 109.7675 47.74858 106.7577 46.87733 103.5103 L 29.37314 102.7183 C 29.37314 102.7183 29.37314 90.20381 29.37314 90.12461 z M 97.48897 71.66882 C 97.48897 79.9061 90.59829 90.91678 82.20183 96.14429 C 73.72697 101.451 66.91608 98.99565 66.91608 90.75825 C 66.91608 82.51985 73.72697 71.51041 82.20183 66.20491 C 90.59829 60.9774 97.48897 63.35354 97.48897 71.66882 z "
   id="path926" /><path
   style="font-size:12;fill:none;fill-rule:evenodd;stroke:#ffffff;stroke-width:1.267274;stroke-opacity:1;"
   d="M 111.5258 23.94944 L 120.6872 34.7141 "
   id="path938" /><path
   style="font-size:12;fill:url(#linearGradient931);fill-opacity:0.1898;fill-rule:evenodd;stroke-width:1.875;stroke-linecap:round;stroke-linejoin:round;"
   d="M 66.83266 89.9662 C 66.83266 92.26313 67.22868 94.32245 68.09993 96.06496 C 70.47607 99.78757 75.78278 100.0252 81.96077 96.14416 C 90.3565 90.91666 97.2473 79.90725 97.2473 71.66998 C 97.2473 63.35353 91.65216 62.5969 83.28241 65.18053 C 95.69286 60.98801 106.9895 66.83851 106.9895 78.65595 C 106.9895 90.47336 97.96014 100.6588 86.87146 103.9062 C 78.15895 106.3616 70.79289 103.035 68.09993 96.06496 "
   id="path628"
   sodipodi:nodetypes="ccccccccc" /><path
   style="font-size:12;fill:url(#linearGradient679);fill-rule:evenodd;stroke-width:1.875;fill-opacity:1.0"
   d="M 20.72703 79.1154 C 20.72703 79.1946 20.72703 81.2968 20.72703 84.9583 L 29.59795 96.5403 C 49.08228 99.3124 60.17093 99.261 67.78315 94.8599 C 66.92046 93.0725 67.14093 92.2633 67.14093 90.7584 C 67.14093 82.5212 73.95253 71.5117 82.42742 66.205 C 90.82311 60.9775 97.71391 63.3536 97.71391 71.6701 C 97.71391 74.2046 97.76739 74.9947 96.07735 78.8767 C 104.7631 75.8679 118.0695 73.2542 141.1972 74.5215 C 141.1972 71.4325 141.1972 67.9475 141.1972 67.8683 L 132.8015 56.8589 L 120.8417 56.7005 L 129.0789 41.49317 C 129.0789 41.49317 120.6832 30.48378 120.6832 30.48378 C 120.6832 30.48378 111.8123 23.35537 111.7331 23.35537 L 97.6347 35.23606 C 96.05061 34.60242 94.38732 34.04799 92.64481 33.73117 L 91.29834 28.26605 C 91.29834 28.26605 82.82344 17.25661 82.82344 17.25661 C 82.82344 17.25661 70.30912 19.71195 70.22994 19.79116 L 66.66573 37.21617 C 62.94309 38.87947 59.37888 41.09717 56.2107 43.711 L 41.39944 37.61219 C 41.39944 37.61219 32.52852 48.3048 32.52852 48.3048 L 42.03307 61.1359 C 40.21137 64.5417 38.86489 68.1852 37.99364 71.9869 L 20.72703 79.1154 "
   id="path1178"
   sodipodi:nodetypes="ccccccccccccccccccccccccccc" /><path
   style="font-size:12;fill:none;fill-opacity:0.1898;fill-rule:evenodd;stroke:#667f99;stroke-width:2.376138;stroke-opacity:1;"
   d="M 129.3291 112.1436 C 129.3291 112.1436 120.4582 122.757 120.4582 122.8362 L 129.3291 112.1436 z M 97.48897 71.66882 C 97.48897 79.9061 90.59829 90.91678 82.20183 96.14429 C 73.72697 101.451 66.91608 98.99565 66.91608 90.75825 C 66.91608 82.51985 73.72697 71.51041 82.20183 66.20491 C 90.59829 60.9774 97.48897 63.35354 97.48897 71.66882 z "
   id="path629"
   sodipodi:nodetypes="cccccccc" /><path
   style="font-size:12;fill:none;fill-rule:evenodd;stroke:#667f99;stroke-width:2.5;stroke-dasharray:none;stroke-opacity:1;"
   d="M 20.72703 79.1153 L 37.99364 71.98688 C 38.86489 68.18506 40.21137 64.54165 42.03307 61.13588 L 32.52852 48.30471 C 32.52852 48.30471 41.39944 37.61208 41.39944 37.61208 L 56.2107 43.71086 C 59.37888 41.09709 62.94309 38.87936 66.66573 37.21606 L 70.22994 19.79105 C 70.30912 19.71184 82.82344 17.2565 82.82344 17.2565 C 82.82344 17.2565 91.29834 28.26594 91.29834 28.26594 L 92.64481 33.73106 C 94.38732 34.04788 96.05061 34.60231 97.6347 35.23595 L 111.7331 23.35526 C 111.8123 23.35526 120.6832 30.48367 120.6832 30.48367 C 120.6832 30.48367 129.0789 41.49311 129.0789 41.49311 L 120.8417 56.70039 L 132.8015 56.8588 L 141.1972 67.86824 C 141.1972 67.94745 141.1972 80.46178 141.1972 80.46178 L 124.4059 87.90701 C 123.4554 91.78803 122.0297 95.58985 120.0496 99.07486 L 129.0789 112.1436 C 129.0789 112.1436 120.208 122.757 120.208 122.8362 L 105.3968 116.2623 C 102.387 118.7176 98.98118 120.6185 95.49618 122.2026 L 91.29834 140.3405 C 91.29834 140.3405 78.78401 142.7958 78.6256 142.875 C 78.6256 142.875 70.22994 131.8656 70.22994 131.8656 L 68.87489 125.1161 C 67.60758 125.1953 66.34889 124.3411 65.31923 123.9451 L 49.87433 136.4594 C 49.87433 136.4594 41.00341 129.331 40.92421 129.331 C 40.92421 129.331 32.52852 118.3216 32.52852 118.3216 L 41.16182 103.2727 L 29.12272 102.7183 L 20.72703 91.70883 C 20.72703 91.70883 20.72703 79.1945 20.72703 79.1153 z "
   id="path927"
   sodipodi:nodetypes="ccccccccccccccccccccccccccccccccccccc" /><text
   xml:space="preserve"
   style="font-size:114.17544556px;font-style:normal;font-weight:normal;line-height:125%;fill:#99bfff;fill-opacity:1;stroke:#000000;stroke-width:3.09999946;stroke-linecap:butt;stroke-linejoin:miter;stroke-opacity:1;font-family:Bitstream Vera Sans;stroke-miterlimit:4;stroke-dasharray:none"
   x="50.634659"
   y="144.63873"
   id="text1337"
   sodipodi:linespacing="125%"
   transform="scale(1.013265,0.986909)"><tspan
     sodipodi:role="line"
     id="tspan1339"
     x="50.634659"
     y="144.63873"
     style="font-size:114.17544556px;font-style:normal;font-variant:normal;font-weight:bold;font-stretch:normal;text-align:start;line-height:125%;writing-mode:lr-tb;text-anchor:start;font-family:Bitstream Vera Sans;fill:#99bfff;fill-opacity:1;stroke:#000000;stroke-opacity:1;stroke-width:3.09999946;stroke-miterlimit:4;stroke-dasharray:none">G</tspan></text>


</svg>